<svg width="24" height="25" viewBox="0 0 24 25" fill="none" xmlns="http://www.w3.org/2000/svg">
<g clip-path="url(#clip0_311_154)">
<path d="M20 22.5H4C3.73478 22.5 3.48043 22.3946 3.29289 22.2071C3.10536 22.0196 3 21.7652 3 21.5V3.5C3 3.23478 3.10536 2.98043 3.29289 2.79289C3.48043 2.60536 3.73478 2.5 4 2.5H20C20.2652 2.5 20.5196 2.60536 20.7071 2.79289C20.8946 2.98043 21 3.23478 21 3.5V21.5C21 21.7652 20.8946 22.0196 20.7071 22.2071C20.5196 22.3946 20.2652 22.5 20 22.5ZM19 20.5V4.5H5V20.5H19ZM9 6.5V8.5C9 9.29565 9.31607 10.0587 9.87868 10.6213C10.4413 11.1839 11.2044 11.5 12 11.5C12.7956 11.5 13.5587 11.1839 14.1213 10.6213C14.6839 10.0587 15 9.29565 15 8.5V6.5H17V8.5C17 9.82608 16.4732 11.0979 15.5355 12.0355C14.5979 12.9732 13.3261 13.5 12 13.5C10.6739 13.5 9.40215 12.9732 8.46447 12.0355C7.52678 11.0979 7 9.82608 7 8.5V6.5H9Z" fill="currentColor"/>
</g>
<defs>
<clipPath id="clip0_311_154">
<rect width="24" height="24" fill="white" transform="translate(0 0.5)"/>
</clipPath>
</defs>
</svg>
