<?xml version="1.0" encoding="UTF-8"?>
<svg version="1.1" viewBox="0 0 900 900" width="1280" height="1280" xmlns="http://www.w3.org/2000/svg">
<path transform="translate(0)" d="m0 0h900v900h-900z" fill="#017DBA"/>
<path transform="translate(496,548)" d="m0 0h14l19 2 24 5 20 7 16 7 18 10 15 10 12 9 11 9 13 12 7 6 7 8 12 13 8 10 2 3-1 4-13 15-11 12-17 17-11 9-12 10-16 11-17 10-21 10-24 8-25 5-8 1h-28l-19-3-24-6-20-7-25-11-21-11-23-14-16-11-16-12-5-4h-2l-10 16-9 11-9 10-5 6-11 9-11 8-14 8-19 7-19 4-7-1 1-6 9-17 9-21 7-21 5-24 2-13v-18l-4-23-5-19-7-20-13-27-4-7v-5l13 1 19 5 18 8 17 11 11 9 13 13 13 17 8 13v2l6-3 13-10 24-16 20-12 22-12 18-8 27-10 20-5 18-3z" fill="#FEFEFD"/>
<path transform="translate(316,357)" d="m0 0 4 1 9 6 16 8 12 5 16 4 15 1 19-3 15-6 16-10 7-6 4 1 12 9 13 8 14 5 10 2h16l20-4 15-6 14-7 12-8 4 1v2l4 2 8 6 12 7 14 5 12 3 16 1 16-3 15-5 9-4 3 1 1 18-2 8-11 8-14 7-18 4h-9l-18-4-19-9-12-9-7-6-5 2-8 7-11 7-13 6-10 3-7 1h-20l-18-4-17-7-12-7-11-9-5 3-13 9-16 8-15 5-11 2h-20l-17-4-17-8-13-10-4-4-4 1-10 9-13 8-11 5-15 4-6 1h-9l-18-4-16-8-9-8-1-3v-20l3-3 17 7 17 4h22l21-6 16-8 11-8z" fill="#FEFEFD"/>
<path transform="translate(316,432)" d="m0 0 5 1 9 6 9 5 10 5 18 6 14 2h12l15-3 15-6 13-8 10-8 4 1 8 7 13 8 14 6 16 3h11l19-3 17-6 20-11 7-5 5 1 8 7 11 7 20 8 17 3h13l18-4 18-7 4 1v24l-9 8-16 8-8 3-6 1h-20l-17-5-17-9-10-8-5-5-6 1-14 11-16 8-13 4-5 1h-21l-18-4-19-8-14-9-8-6-5 2-15 10-16 8-18 5-7 1h-21l-16-4-16-8-10-7-6-6-4 1-10 9-18 11-14 5-10 2h-12l-15-3-15-6-11-8-3-4v-24l6 1 12 5 15 4 8 1h12l17-3 16-6 15-9z" fill="#FEFEFD"/>
<path transform="translate(171,78)" d="m0 0h21l13 1 1 1v97l-1 7h15l3 1v23l-2 1-15 1-1 39-7 1h-21l-1-1-1-39h-50l-1-1v-24l3-9 11-26 15-36 13-30 3-5z" fill="#FEFEFD"/>
<path transform="translate(86,78)" d="m0 0h21l3 2v169l-3 1h-29l-1-1-1-136-21 8-3-1v-21l4-4 18-10 9-6z" fill="#FEFEFD"/>
<path transform="translate(556,612)" d="m0 0h12l10 4 8 7 5 8 2 8v7l-3 9-6 8-6 5-8 4-9 1-9-2-11-8-6-8-3-10v-7l3-10 6-8 10-6z" fill="#017DBA"/>
<path transform="translate(405,185)" d="m0 0h13l6 3 5 7 1 5v35l-3 9-7 6-2 1h-16l-6-5-3-7-1-7v-27l2-12 4-5z" fill="#FEFEFD"/>
<path transform="translate(289,185)" d="m0 0h10l13 1 7 3 4 5 1 12-2 5-3 2 1 4 4 5 1 4v13l-3 6-5 4-10 2h-18l-1-1v-64z" fill="#FEFEFD"/>
<path transform="translate(436,185)" d="m0 0h6l3 5 4 30 1 3 5-30 1-7 5-1 4 4 3 22 1 13h2l3-25 3-13 1-1h6l2 2-3 24-5 34-2 6h-7l-3-7-5-28-1-2-5 26-3 10-1 1h-6l-3-9-5-31-3-25z" fill="#FEFEFD"/>
<path transform="translate(508,185)" d="m0 0h6l3 3 3 21 1 11 1 3 4-21 2-15 1-1h7l2 5 3 27 1 5 2-8 4-26 1-3 6-1 3 1-1 14-7 49-2 2h-6l-3-5-4-25v-7h-2l-4 18-3 14-3 5h-5l-2-2-6-36-3-23z" fill="#FEFEFD"/>
<path transform="translate(666,185)" d="m0 0 20 1 7 2 5 5 1 4v15l-5 6 2 11 4 15v6l-1 1h-7l-4-4-6-24-2-2h-4v26l-1 3-2 1h-7l-2-2v-63z" fill="#FEFEFD"/>
<path transform="translate(573,186)" d="m0 0h10l3 4 10 53v7l-1 1h-7l-2-2-2-12-3-1h-9l-1 12-3 3h-7l-1-1v-7l8-42 3-13z" fill="#FEFEFD"/>
<path transform="translate(634,185)" d="m0 0h22l3 1v7l-2 1h-14v18h11l1 1v7l-1 1-10 1v20l14 1 1 6-7 2h-17l-3-2v-63z" fill="#FEFEFD"/>
<path transform="translate(332,185)" d="m0 0h24l2 1v7l-7 1h-9l1 18h10l2 1v7l-3 1h-10l1 21 14 1 1 1v5l-1 1h-26l-1-64z" fill="#FEFEFD"/>
<path transform="translate(370,79)" d="m0 0h25l2 2v5l-1 1-14 1v17l10 1 2 2-1 5-1 1-10 1v20l14 1 1 1v5l-1 1-14 1h-10l-2-1z" fill="#FEFEFD"/>
<path transform="translate(173,116)" d="m0 0h3v68l-6 1h-12l-8-1 3-10 18-50z" fill="#017DBA"/>
<path transform="translate(340,79)" d="m0 0h24l1 1v6l-1 1-12 1-1 17h10l2 2-1 6-3 1h-9v29l-9 1-2-1v-63z" fill="#FEFEFD"/>
<path transform="translate(609,185)" d="m0 0 18 1 1 1v6l-10 2-1 1v53l-2 2h-8l-1-1-1-29v-27h-9l-2-2v-5l1-1z" fill="#FEFEFD"/>
<path transform="translate(364,185)" d="m0 0h7l4 2v57l13-1 3 3-1 5h-25l-2-5v-60z" fill="#FEFEFD"/>
<path transform="translate(288,79)" d="m0 0h11l1 1v55l15 1 2 3-1 5h-27l-1-1z" fill="#FEFEFD"/>
<path transform="translate(319,79)" d="m0 0h11l1 1v63l-3 1h-8l-1-1z" fill="#FEFEFD"/>
<path transform="translate(409,193)" d="m0 0h6l2 2 1 21v17l-1 8-2 2h-7l-3-3-1-10v-17l1-18z" fill="#017DBA"/>
<path transform="translate(300,221)" d="m0 0h9l4 5 1 10-2 4-8 3-5-2v-18z" fill="#017DBA"/>
<path transform="translate(676,194)" d="m0 0h10l2 2v13l-5 4h-6l-2-1v-17z" fill="#017DBA"/>
<path transform="translate(299,194)" d="m0 0h8l5 3v9l-3 5-2 1h-7l-1-2z" fill="#017DBA"/>
<path transform="translate(577,204)" d="m0 0h2l2 10 1 14h-8l-1-2 3-20z" fill="#017DBA"/>
</svg>
